<svg width="744" height="982" viewBox="0 0 744 982" fill="none" xmlns="http://www.w3.org/2000/svg">
<path d="M1034.28 270.449C1034.28 268.987 1034.28 267.525 1034.28 266.063C1034.33 200.395 1011.39 136.788 969.446 86.2951C927.506 35.8026 869.219 1.6173 804.716 -10.3198C740.212 -22.257 673.569 -11.1912 616.37 20.9543C559.17 53.0998 515.029 104.293 491.618 165.637C468.764 161.858 445.64 159.944 422.476 159.916C310.428 159.916 202.97 204.475 123.74 283.791C44.5106 363.107 0 470.682 0 582.852C0 695.021 44.5106 802.597 123.74 881.912C202.97 961.228 310.428 1005.79 422.476 1005.79C505.587 1005.79 555.174 982.524 641.523 978.71C760.444 978.71 760.444 1026 892.38 1026C983.481 1025.99 1071.71 994.106 1141.82 935.864C1211.92 877.623 1259.49 796.685 1276.3 707.05C1293.1 617.415 1278.08 524.719 1233.85 444.994C1189.61 365.269 1118.93 303.528 1034.03 270.449H1034.28Z" fill="#12122D"/>
</svg>
